<svg width="21" height="20" viewBox="0 0 21 20" fill="none" xmlns="http://www.w3.org/2000/svg" class="ant-menu-item-icon"><path d="M8.00001 18.3333H13C17.1667 18.3333 18.8333 16.6667 18.8333 12.5V7.49999C18.8333 3.33332 17.1667 1.66666 13 1.66666H8.00001C3.83334 1.66666 2.16667 3.33332 2.16667 7.49999V12.5C2.16667 16.6667 3.83334 18.3333 8.00001 18.3333Z" stroke="currentColor" stroke-width="1.5" stroke-linecap="round" stroke-linejoin="round"></path><path d="M15.0833 9.99999C15.0833 12.5333 13.0333 14.5833 10.5 14.5833C7.96667 14.5833 6.42499 12.0333 6.42499 12.0333M6.42499 12.0333H8.49167M6.42499 12.0333V14.325M5.91667 9.99999C5.91667 7.46666 7.95 5.41666 10.5 5.41666C13.5583 5.41666 15.0833 7.96665 15.0833 7.96665M15.0833 7.96665V5.67499M15.0833 7.96665H13.05" stroke="currentColor" stroke-width="1.5" stroke-linecap="round" stroke-linejoin="round"></path></svg>